<?xml version="1.0" standalone="no"?><!DOCTYPE svg PUBLIC "-//W3C//DTD SVG 1.1//EN" "http://www.w3.org/Graphics/SVG/1.1/DTD/svg11.dtd"><svg t="1706607825751" class="icon" viewBox="0 0 1024 1024" version="1.1" xmlns="http://www.w3.org/2000/svg" p-id="6416" xmlns:xlink="http://www.w3.org/1999/xlink" width="200" height="200"><path d="M512 0c139.093333 0 156.458667 0.512 211.072 3.072 54.485333 2.517333 91.648 11.093333 124.288 23.808 34.176 12.8 65.152 32.981333 90.709333 59.050667A251.306667 251.306667 0 0 1 997.12 176.64c12.629333 32.597333 21.248 69.802667 23.808 124.288C1023.36 355.541333 1024 372.906667 1024 512s-0.512 156.458667-3.072 211.072c-2.517333 54.485333-11.178667 91.648-23.808 124.288a250.069333 250.069333 0 0 1-59.050667 90.709333 251.733333 251.733333 0 0 1-90.709333 59.050667c-32.64 12.629333-69.802667 21.248-124.288 23.808-54.613333 2.432-71.978667 3.072-211.072 3.072s-156.458667-0.512-211.072-3.072c-54.485333-2.517333-91.648-11.178667-124.288-23.808a250.410667 250.410667 0 0 1-90.709333-59.050667A251.050667 251.050667 0 0 1 26.88 847.36c-12.672-32.64-21.248-69.802667-23.808-124.288C0.64 668.458667 0 651.093333 0 512s0.512-156.458667 3.072-211.072C5.589333 246.4 14.165333 209.28 26.88 176.64c12.8-34.176 32.981333-65.152 59.093333-90.709333A250.709333 250.709333 0 0 1 176.64 26.88C209.28 14.208 246.442667 5.632 300.928 3.072 355.541333 0.64 372.906667 0 512 0z m0 249.088a262.954667 262.954667 0 1 0 0.042667 525.866667A262.954667 262.954667 0 0 0 512 249.088zM512 682.666667a170.581333 170.581333 0 0 1-170.666667-170.666667c0-94.293333 76.373333-170.666667 170.666667-170.666667s170.666667 76.373333 170.666667 170.666667-76.373333 170.666667-170.666667 170.666667z m334.762667-443.904a61.44 61.44 0 1 0-122.88 0 61.525333 61.525333 0 0 0 122.88 0z" fill="#515151" p-id="6417"></path></svg>